# xmcd
# Copyright (C) 1995-1998 Ti Kan
#
# Track frame offsets:
#       150
#       19148
#       31584
#       51028
#       53731
#       67325
#       82836
#       94548
#       113329
#       128867
#       139889
#       158668
#
# Disc length: 2363 seconds
#
# Revision: 0
# Processed by: cddbd v1.5.2PL0 Copyright (c) Steve Scherf et al.
# Submitted via: CD-Transfer v1.0
#
DISCID=8e09390c
DTITLE=Gus Macgregor - Lifeline
DYEAR=09
DGENRE=
TTITLE0=Lifeline
TTITLE1=The House
TTITLE2=Somewhere Round The Bend
TTITLE3=Whiskey
TTITLE4=My Two Feet
TTITLE5=See Yourself
TTITLE6=Silly Thing
TTITLE7=Meet Me In The Rose Garden
TTITLE8=Nothing Of You
TTITLE9=Send Your Love Down
TTITLE10=How I Need A Woman
TTITLE11=The Best Of Days
EXTD=
EXTT0=
EXTT1=
EXTT2=
EXTT3=
EXTT4=
EXTT5=
EXTT6=
EXTT7=
EXTT8=
EXTT9=
EXTT10=
EXTT11=
PLAYORDER=
